<?xml version="1.0" encoding="UTF-8" standalone="no"?>
<!-- Generator: Adobe Illustrator 17.1.0, SVG Export Plug-In . SVG Version: 6.00 Build 0)  -->

<svg
   xmlns:dc="http://purl.org/dc/elements/1.1/"
   xmlns:cc="http://creativecommons.org/ns#"
   xmlns:rdf="http://www.w3.org/1999/02/22-rdf-syntax-ns#"
   xmlns:svg="http://www.w3.org/2000/svg"
   xmlns="http://www.w3.org/2000/svg"
   xmlns:sodipodi="http://sodipodi.sourceforge.net/DTD/sodipodi-0.dtd"
   xmlns:inkscape="http://www.inkscape.org/namespaces/inkscape"
   version="1.1"
   id="Capa_1"
   x="0px"
   y="0px"
   viewBox="0 0 7.7088437 7.7088437"
   xml:space="preserve"
   width="16"
   height="16"
   sodipodi:docname="ads.svg"
   inkscape:version="0.92.3 (2405546, 2018-03-11)"><metadata
   id="metadata39"><rdf:RDF><cc:Work
       rdf:about=""><dc:format>image/svg+xml</dc:format><dc:type
         rdf:resource="http://purl.org/dc/dcmitype/StillImage" /><dc:title></dc:title></cc:Work></rdf:RDF></metadata><defs
   id="defs37" /><sodipodi:namedview
   pagecolor="#ffffff"
   bordercolor="#666666"
   borderopacity="1"
   objecttolerance="10"
   gridtolerance="10"
   guidetolerance="10"
   inkscape:pageopacity="0"
   inkscape:pageshadow="2"
   inkscape:window-width="1366"
   inkscape:window-height="704"
   id="namedview35"
   showgrid="false"
   inkscape:zoom="20.85965"
   inkscape:cx="12.891293"
   inkscape:cy="6.1873823"
   inkscape:window-x="0"
   inkscape:window-y="27"
   inkscape:window-maximized="1"
   inkscape:current-layer="Capa_1" />
<path
   d="m 3.2809689,0.00829186 h -1.7035 c -0.1294371,0 -0.234375,0.10493 -0.234375,0.23437 V 3.2286918 c 0,0.12944 0.1049379,0.23438 0.234375,0.23438 h 1.7035 c 0.129438,0 0.234375,-0.10494 0.234375,-0.23438 V 0.24266186 c 0,-0.12944 -0.104937,-0.23437 -0.234375,-0.23437 z M 2.8100939,2.6837618 h -0.76175 V 0.78763186 h 0.76175 z m 1.57,-1.67222 c -0.09153,-0.0915 -0.09153,-0.23993994 0,-0.33143994 l 0.611406,-0.61141 c 0.044,-0.044 0.103594,-0.0686999975 0.16575,-0.0686999975 0.0013,6e-5 0.0022,0 0.0032,0 0.0011,0 0.0022,0 0.0033,0 h 0.2365 c 0.129468,0 0.234375,0.1049299975 0.234375,0.2343699975 V 2.7578018 h 0.378718 c 0.129469,0 0.234375,0.10494 0.234375,0.23437 v 0.2365 c 0,0.12944 -0.104906,0.23438 -0.234375,0.23438 h -1.462718 c -0.129469,0 -0.234375,-0.10494 -0.234375,-0.23438 v -0.2365 c 0,-0.12943 0.104906,-0.23437 0.234375,-0.23437 h 0.378718 v -1.62969 l -0.05062,0.0507 c -0.04397,0.044 -0.103562,0.0686 -0.1657501,0.0686 -0.06219,0 -0.1217499,-0.0247 -0.16575,-0.0686 z m 1.7512809,3.24253 H 4.4278749 c -0.1294681,0 -0.234375,0.10494 -0.234375,0.23437 v 2.98604 c 0,0.12943 0.1049069,0.23437 0.234375,0.23437 h 1.7034999 c 0.1294691,0 0.234375,-0.10494 0.234375,-0.23437 v -2.98604 c 0,-0.12943 -0.1049059,-0.23437 -0.234375,-0.23437 z m -0.470843,2.67547 H 4.8987499 v -1.89613 h 0.7617819 z m -2.263125,0.30844 v 0.2365 c 0,0.12943 -0.104938,0.23437 -0.234375,0.23437 h -1.462719 c -0.129438,0 -0.234375,-0.10494 -0.234375,-0.23437 v -0.2365 c 0,-0.12944 0.104937,-0.23438 0.234375,-0.23438 h 0.378719 v -1.62972 l -0.05066,0.0507 c -0.04394,0.044 -0.103562,0.0687 -0.165718,0.0687 -0.06216,0 -0.121782,-0.0247 -0.16575,-0.0687 l -0.167219,-0.16725 c -0.09153,-0.0915 -0.0915,-0.23994 0,-0.33144 l 0.6114091,-0.61145 c 0.04397,-0.044 0.103563,-0.0686 0.165719,-0.0686 0.0011,0 0.0022,0 0.0033,0 0.0011,0 0.0022,0 0.0033,0 h 0.2365 c 0.129438,0 0.234375,0.10494 0.234375,0.23437 v 2.52344 h 0.378719 c 0.129531,0 0.234469,0.10494 0.234469,0.23438 z"
   id="path2"
   style="fill:#315982;fill-opacity:1;stroke-width:0.03125"
   inkscape:connector-curvature="0" />
<g
   id="g4"
   transform="translate(0,-238.97416)">
</g>
<g
   id="g6"
   transform="translate(0,-238.97416)">
</g>
<g
   id="g8"
   transform="translate(0,-238.97416)">
</g>
<g
   id="g10"
   transform="translate(0,-238.97416)">
</g>
<g
   id="g12"
   transform="translate(0,-238.97416)">
</g>
<g
   id="g14"
   transform="translate(0,-238.97416)">
</g>
<g
   id="g16"
   transform="translate(0,-238.97416)">
</g>
<g
   id="g18"
   transform="translate(0,-238.97416)">
</g>
<g
   id="g20"
   transform="translate(0,-238.97416)">
</g>
<g
   id="g22"
   transform="translate(0,-238.97416)">
</g>
<g
   id="g24"
   transform="translate(0,-238.97416)">
</g>
<g
   id="g26"
   transform="translate(0,-238.97416)">
</g>
<g
   id="g28"
   transform="translate(0,-238.97416)">
</g>
<g
   id="g30"
   transform="translate(0,-238.97416)">
</g>
<g
   id="g32"
   transform="translate(0,-238.97416)">
</g>
</svg>