<?xml version="1.0" encoding="UTF-8" standalone="no"?>
<!-- Generator: Adobe Illustrator 16.0.0, SVG Export Plug-In . SVG Version: 6.00 Build 0)  -->

<svg
   xmlns:dc="http://purl.org/dc/elements/1.1/"
   xmlns:cc="http://creativecommons.org/ns#"
   xmlns:rdf="http://www.w3.org/1999/02/22-rdf-syntax-ns#"
   xmlns:svg="http://www.w3.org/2000/svg"
   xmlns="http://www.w3.org/2000/svg"
   xmlns:sodipodi="http://sodipodi.sourceforge.net/DTD/sodipodi-0.dtd"
   xmlns:inkscape="http://www.inkscape.org/namespaces/inkscape"
   version="1.1"
   id="Capa_1"
   x="0px"
   y="0px"
   width="16"
   height="16"
   viewBox="0 0 1.4687812 1.4687812"
   xml:space="preserve"
   sodipodi:docname="ge.svg"
   inkscape:version="0.92.3 (2405546, 2018-03-11)"><metadata
   id="metadata56"><rdf:RDF><cc:Work
       rdf:about=""><dc:format>image/svg+xml</dc:format><dc:type
         rdf:resource="http://purl.org/dc/dcmitype/StillImage" /><dc:title></dc:title></cc:Work></rdf:RDF></metadata><defs
   id="defs54" /><sodipodi:namedview
   pagecolor="#ffffff"
   bordercolor="#666666"
   borderopacity="1"
   objecttolerance="10"
   gridtolerance="10"
   guidetolerance="10"
   inkscape:pageopacity="0"
   inkscape:pageshadow="2"
   inkscape:window-width="1366"
   inkscape:window-height="704"
   id="namedview52"
   showgrid="false"
   inkscape:zoom="14.75"
   inkscape:cx="9.9449164"
   inkscape:cy="6.3354464"
   inkscape:window-x="0"
   inkscape:window-y="27"
   inkscape:window-maximized="1"
   inkscape:current-layer="Capa_1" />
<g
   id="g19"
   style="fill:#46915f;fill-opacity:1"
   transform="matrix(0.03124934,0,0,0.03124934,6.179021e-6,-1.3934e-7)">
	<g
   id="Layer_1_87_"
   style="fill:#46915f;fill-opacity:1">
		<g
   id="g16"
   style="fill:#46915f;fill-opacity:1">
			<path
   d="m 41.188,9.372 c 0,-0.837 -0.85,-1.081 -1.512,-1.229 v 2.434 c 0.738,-0.05 1.512,-0.396 1.512,-1.205 z"
   id="path2"
   style="fill:#46915f;fill-opacity:1"
   inkscape:connector-curvature="0" />
			<path
   d="M 38.938,4.185 C 38.102,4.209 37.56,4.702 37.56,5.23 c 0,0.615 0.458,0.971 1.379,1.155 z"
   id="path4"
   style="fill:#46915f;fill-opacity:1"
   inkscape:connector-curvature="0" />
			<path
   d="m 39.283,14.867 c 4.1,0 7.434,-3.335 7.434,-7.433 C 46.717,3.336 43.382,0 39.283,0 c -4.101,0 -7.436,3.335 -7.436,7.434 0,4.098 3.335,7.433 7.436,7.433 z M 36.014,5.512 c 0,-1.67 1.389,-2.533 2.925,-2.581 V 2.277 c 0,-0.211 0.159,-0.419 0.367,-0.419 0.21,0 0.37,0.208 0.37,0.419 v 0.654 c 0.957,0.025 2.926,0.626 2.926,1.833 0,0.479 -0.358,0.761 -0.775,0.761 -0.801,0 -0.788,-1.315 -2.15,-1.34 v 2.336 c 1.624,0.344 3.06,0.824 3.06,2.717 0,1.646 -1.229,2.483 -3.06,2.594 v 0.76 c 0,0.21 -0.16,0.419 -0.37,0.419 -0.208,0 -0.367,-0.209 -0.367,-0.419 v -0.76 c -2.077,-0.051 -3.109,-1.292 -3.109,-2.264 0,-0.49 0.296,-0.774 0.761,-0.774 1.377,0 0.307,1.696 2.349,1.783 V 8.007 C 37.118,7.675 36.014,6.877 36.014,5.512 Z"
   id="path6"
   style="fill:#46915f;fill-opacity:1"
   inkscape:connector-curvature="0" />
			<path
   d="M 9.355,33.113 H 2.946 c -1.18,0 -2.136,0.957 -2.136,2.137 v 9.613 C 0.811,46.045 1.768,47 2.946,47 h 6.409 c 1.18,0 2.136,-0.955 2.136,-2.137 V 35.25 c 0.001,-1.18 -0.955,-2.137 -2.136,-2.137 z"
   id="path8"
   style="fill:#46915f;fill-opacity:1"
   inkscape:connector-curvature="0" />
			<path
   d="M 25.919,25.637 H 19.51 c -1.18,0 -2.136,0.957 -2.136,2.137 v 17.091 c 0,1.182 0.957,2.137 2.136,2.137 h 6.409 c 1.18,0 2.137,-0.955 2.137,-2.137 V 27.771 c 0,-1.177 -0.956,-2.134 -2.137,-2.134 z"
   id="path10"
   style="fill:#46915f;fill-opacity:1"
   inkscape:connector-curvature="0" />
			<path
   d="m 42.486,17.091 h -6.408 c -1.181,0 -2.137,0.957 -2.137,2.136 v 25.636 c 0,1.182 0.957,2.137 2.137,2.137 h 6.408 c 1.181,0 2.137,-0.955 2.137,-2.137 V 19.228 c 0.001,-1.18 -0.956,-2.137 -2.137,-2.137 z"
   id="path12"
   style="fill:#46915f;fill-opacity:1"
   inkscape:connector-curvature="0" />
			<path
   d="M 29.675,10.972 24.37,9.863 c -0.406,-0.084 -0.824,0.073 -1.073,0.404 -0.249,0.332 -0.283,0.777 -0.088,1.144 l 1.176,2.211 -23.522,12.133 c -0.524,0.271 -0.73,0.916 -0.459,1.438 0.19,0.367 0.563,0.578 0.95,0.578 0.165,0 0.332,-0.037 0.489,-0.119 l 23.544,-12.145 1.079,2.028 c 0.186,0.35 0.549,0.567 0.943,0.567 0.018,0 0.035,-0.001 0.054,-0.002 0.414,-0.021 0.779,-0.279 0.935,-0.663 l 2.049,-5.018 c 0.12,-0.294 0.104,-0.625 -0.046,-0.905 -0.151,-0.277 -0.416,-0.476 -0.726,-0.542 z"
   id="path14"
   style="fill:#46915f;fill-opacity:1"
   inkscape:connector-curvature="0" />
		</g>
	</g>
</g>
<g
   id="g21"
   transform="translate(0,-45.532218)">
</g>
<g
   id="g23"
   transform="translate(0,-45.532218)">
</g>
<g
   id="g25"
   transform="translate(0,-45.532218)">
</g>
<g
   id="g27"
   transform="translate(0,-45.532218)">
</g>
<g
   id="g29"
   transform="translate(0,-45.532218)">
</g>
<g
   id="g31"
   transform="translate(0,-45.532218)">
</g>
<g
   id="g33"
   transform="translate(0,-45.532218)">
</g>
<g
   id="g35"
   transform="translate(0,-45.532218)">
</g>
<g
   id="g37"
   transform="translate(0,-45.532218)">
</g>
<g
   id="g39"
   transform="translate(0,-45.532218)">
</g>
<g
   id="g41"
   transform="translate(0,-45.532218)">
</g>
<g
   id="g43"
   transform="translate(0,-45.532218)">
</g>
<g
   id="g45"
   transform="translate(0,-45.532218)">
</g>
<g
   id="g47"
   transform="translate(0,-45.532218)">
</g>
<g
   id="g49"
   transform="translate(0,-45.532218)">
</g>
</svg>