<?xml version="1.0" encoding="utf-8"?>
<!-- Generator: Adobe Illustrator 21.0.0, SVG Export Plug-In . SVG Version: 6.00 Build 0)  -->
<svg version="1.1" id="Layer_1" xmlns="http://www.w3.org/2000/svg" xmlns:xlink="http://www.w3.org/1999/xlink" x="0px" y="0px"
	 viewBox="0 0 300 300" style="enable-background:new 0 0 300 300;" xml:space="preserve">
<style type="text/css">
	.st0{fill:#624B84;}
</style>
<g>
	<path class="st0" d="M268.5,80H108.8c-2.6,0-4.7,2.1-4.7,4.7v92.9h94.9c6.2-7.5,15.6-12.3,26.1-12.3s19.9,4.8,26.1,12.3h21.9V84.7
		C273.2,82.1,271.1,80,268.5,80z M211.4,113.1l-26,26l-3.3,3.3l-0.5-0.5l-2.2-3.5l-8-12.5l4-2.5l7.5,11.6l25.3-25.3L211.4,113.1z
		 M187.6,153.8c-13.6,0-24.6-11-24.6-24.6c0-13.6,11-24.6,24.6-24.6c5.9,0,11.3,2.1,15.5,5.5l-3.3,3.1c-3.4-2.6-7.6-4.1-12.2-4.1
		c-11.1,0-20.1,9-20.1,20.1c0,11.1,9,20.1,20.1,20.1s20.1-9,20.1-20.1c0-2.3-0.4-4.4-1.1-6.5l3.5-3.3c1.3,3,2,6.3,2,9.8
		C212.1,142.8,201.1,153.8,187.6,153.8z"/>
	<path class="st0" d="M88,108.3h-31c-4.2,0-8.1,1.9-10.6,5l-18.9,19.6h0c-0.9,1.1-1.5,2.5-1.5,4.1v40.6h16.7
		c6.2-7.5,15.6-12.3,26.1-12.3c10.5,0,19.9,4.8,26.1,12.3h5.5V116C98.1,111.4,93.4,108.3,88,108.3z M83.3,142.5
		c0,2.1-1.7,3.8-3.8,3.8H41.6c-2.1,0-3.8-1.7-3.8-3.8v-4.8c0-1,0.4-2,0.9-2.7h0l11.7-13c1.6-2,3.9-3.3,6.5-3.3h19.1
		c3,0,5.7,1.7,7.2,4.2V142.5z"/>
	<path class="st0" d="M34.8,199.2c0,2.8,0.3,5.6,1,8.2H11v-26.1h28.9C36.7,186.5,34.8,192.6,34.8,199.2z"/>
	<path class="st0" d="M196.4,181.3c-3.2,5.2-5.1,11.3-5.1,17.9c0,2.8,0.3,5.6,1,8.2h-90.7c0.7-2.6,1-5.4,1-8.2
		c0-6.6-1.9-12.7-5.1-17.9H196.4z"/>
	<path class="st0" d="M291.1,181.3v26.1h-33c0.7-2.6,1-5.4,1-8.2c0-6.6-1.9-12.7-5.1-17.9H291.1z"/>
	<path class="st0" d="M69.1,169.4c-16.5,0-29.8,13.3-29.8,29.8c0,16.5,13.3,29.8,29.8,29.8s29.8-13.3,29.8-29.8
		C98.9,182.7,85.6,169.4,69.1,169.4z M69.1,213.9c-8.1,0-14.7-6.6-14.7-14.7c0-8.1,6.6-14.7,14.7-14.7s14.7,6.6,14.7,14.7
		C83.8,207.3,77.2,213.9,69.1,213.9z"/>
	<path class="st0" d="M225.6,169.4c-16.5,0-29.8,13.3-29.8,29.8c0,16.5,13.3,29.8,29.8,29.8s29.8-13.3,29.8-29.8
		C255.4,182.7,242,169.4,225.6,169.4z M225.6,213.9c-8.1,0-14.7-6.6-14.7-14.7c0-8.1,6.6-14.7,14.7-14.7s14.7,6.6,14.7,14.7
		C240.3,207.3,233.7,213.9,225.6,213.9z"/>
</g>
</svg>
